<svg width="161" height="61" viewBox="0 0 161 61" fill="none" xmlns="http://www.w3.org/2000/svg">
<path d="M1.08 20V18.896H1.344C1.744 18.896 2.088 18.864 2.376 18.8C2.68 18.72 2.92 18.608 3.096 18.464C3.272 18.304 3.36 18.112 3.36 17.888V4.928C3.36 4.688 3.272 4.512 3.096 4.4C2.92 4.272 2.68 4.184 2.376 4.136C2.072 4.088 1.728 4.064 1.344 4.064H1.08V2.96H6.408L14.712 17.768L14.448 17.84V4.448C14.448 4.384 14.336 4.328 14.112 4.28C13.888 4.216 13.608 4.168 13.272 4.136C12.936 4.088 12.592 4.064 12.24 4.064H11.904V2.96H18.288V4.064H18C17.616 4.064 17.264 4.104 16.944 4.184C16.64 4.248 16.4 4.352 16.224 4.496C16.048 4.64 15.96 4.832 15.96 5.072V20H13.68L4.608 3.896L4.92 3.8V18.512C4.92 18.56 5.024 18.616 5.232 18.68C5.456 18.744 5.736 18.8 6.072 18.848C6.424 18.88 6.768 18.896 7.104 18.896H7.44V20H1.08ZM22.2021 14C22.2021 14.768 22.2981 15.456 22.4901 16.064C22.6981 16.672 22.9861 17.192 23.3541 17.624C23.7221 18.04 24.1541 18.36 24.6501 18.584C25.1461 18.792 25.6821 18.896 26.2581 18.896C26.9141 18.896 27.4741 18.768 27.9381 18.512C28.4181 18.256 28.8181 17.944 29.1381 17.576C29.4741 17.192 29.7541 16.816 29.9781 16.448L31.1061 17.432C30.8021 17.944 30.4261 18.416 29.9781 18.848C29.5301 19.28 28.9941 19.624 28.3701 19.88C27.7621 20.12 27.0421 20.24 26.2101 20.24C25.0421 20.24 23.9861 19.984 23.0421 19.472C22.1141 18.96 21.3781 18.232 20.8341 17.288C20.2901 16.344 20.0181 15.232 20.0181 13.952C20.0181 12.688 20.2741 11.584 20.7861 10.64C21.2981 9.68 21.9861 8.928 22.8501 8.384C23.7301 7.84 24.7061 7.568 25.7781 7.568C26.6581 7.568 27.4261 7.712 28.0821 8C28.7541 8.288 29.3141 8.712 29.7621 9.272C30.2261 9.832 30.5781 10.544 30.8181 11.408C31.0581 12.272 31.1781 13.28 31.1781 14.432H21.7461V13.112H29.5701L28.8981 13.616C28.8821 12.816 28.8101 12.12 28.6821 11.528C28.5541 10.936 28.3621 10.448 28.1061 10.064C27.8501 9.68 27.5301 9.392 27.1461 9.2C26.7621 9.008 26.3061 8.912 25.7781 8.912C25.2821 8.912 24.8181 9.032 24.3861 9.272C23.9541 9.496 23.5701 9.832 23.2341 10.28C22.9141 10.712 22.6581 11.248 22.4661 11.888C22.2901 12.512 22.2021 13.216 22.2021 14ZM41.9076 10.16L38.9556 20H36.8196L33.6036 9.608C33.5396 9.4 33.4276 9.248 33.2676 9.152C33.1076 9.04 32.9156 8.968 32.6916 8.936C32.4836 8.888 32.2516 8.864 31.9956 8.864H31.9716V7.808H37.7556V8.864H37.7076C37.3556 8.864 37.0116 8.872 36.6756 8.888C36.3556 8.904 36.0916 8.928 35.8836 8.96C35.6916 8.976 35.5956 9.016 35.5956 9.08L38.3556 18.536H38.0676L41.1636 7.808H42.8676L46.0356 18.512H45.8196L48.4596 9.368C48.4436 9.256 48.3396 9.168 48.1476 9.104C47.9716 9.024 47.7316 8.968 47.4276 8.936C47.1396 8.888 46.8036 8.864 46.4196 8.864H46.3716V7.808H51.5316V8.864H51.5076C51.2836 8.864 51.0436 8.904 50.7876 8.984C50.5476 9.048 50.3396 9.152 50.1636 9.296C49.9876 9.44 49.8596 9.64 49.7796 9.896L46.7556 20H44.6196L41.4996 10.184L41.9076 10.16ZM60.1545 16.832C60.1545 16.496 60.0665 16.216 59.8905 15.992C59.7145 15.768 59.4745 15.584 59.1705 15.44C58.8825 15.28 58.5465 15.152 58.1625 15.056C57.7945 14.944 57.4025 14.84 56.9865 14.744C56.4905 14.616 55.9945 14.472 55.4985 14.312C55.0185 14.152 54.5785 13.944 54.1785 13.688C53.7785 13.416 53.4585 13.072 53.2185 12.656C52.9785 12.24 52.8585 11.72 52.8585 11.096C52.8585 10.408 53.0345 9.8 53.3865 9.272C53.7385 8.728 54.2425 8.312 54.8985 8.024C55.5705 7.72 56.3785 7.568 57.3225 7.568C58.0585 7.568 58.6985 7.624 59.2425 7.736C59.8025 7.848 60.2665 7.992 60.6345 8.168C61.0025 8.328 61.2745 8.48 61.4505 8.624V11.216H59.3865V8.96C59.5625 8.96 59.7065 8.992 59.8185 9.056C59.9465 9.104 60.0425 9.184 60.1065 9.296C60.1705 9.392 60.2105 9.512 60.2265 9.656C60.2425 9.8 60.2265 9.96 60.1785 10.136C60.0025 9.864 59.7705 9.64 59.4825 9.464C59.1945 9.272 58.8665 9.136 58.4985 9.056C58.1465 8.96 57.7545 8.912 57.3225 8.912C56.4905 8.912 55.8665 9.096 55.4505 9.464C55.0345 9.816 54.8265 10.272 54.8265 10.832C54.8265 11.184 54.9145 11.488 55.0905 11.744C55.2825 11.984 55.5305 12.184 55.8345 12.344C56.1545 12.488 56.5065 12.616 56.8905 12.728C57.2905 12.84 57.7065 12.952 58.1385 13.064C58.6185 13.176 59.0985 13.312 59.5785 13.472C60.0585 13.632 60.4905 13.84 60.8745 14.096C61.2745 14.352 61.5865 14.68 61.8105 15.08C62.0505 15.48 62.1705 15.984 62.1705 16.592C62.1705 17.28 61.9785 17.904 61.5945 18.464C61.2105 19.008 60.6585 19.44 59.9385 19.76C59.2345 20.08 58.3785 20.24 57.3705 20.24C56.6025 20.24 55.9065 20.176 55.2825 20.048C54.6745 19.936 54.1305 19.784 53.6505 19.592C53.1705 19.384 52.7385 19.16 52.3545 18.92V16.16H54.4665V19.208C54.2265 19.064 54.0425 18.92 53.9145 18.776C53.7865 18.632 53.6985 18.496 53.6505 18.368C53.6025 18.224 53.5865 18.08 53.6025 17.936C53.6185 17.776 53.6505 17.616 53.6985 17.456C53.9705 17.792 54.2905 18.064 54.6585 18.272C55.0265 18.48 55.4345 18.64 55.8825 18.752C56.3305 18.848 56.8185 18.896 57.3465 18.896C57.9225 18.896 58.4185 18.816 58.8345 18.656C59.2505 18.496 59.5705 18.264 59.7945 17.96C60.0345 17.64 60.1545 17.264 60.1545 16.832ZM77.9051 12.512C77.8091 12.944 77.6411 13.488 77.4011 14.144C77.1771 14.8 76.8651 15.48 76.4651 16.184C76.0651 16.888 75.5771 17.552 75.0011 18.176C74.4251 18.784 73.7371 19.28 72.9371 19.664C72.1531 20.048 71.2571 20.24 70.2491 20.24C69.0171 20.24 67.9531 20.032 67.0571 19.616C66.1611 19.184 65.4731 18.592 64.9931 17.84C64.5131 17.088 64.2731 16.208 64.2731 15.2C64.2731 14.512 64.4011 13.888 64.6571 13.328C64.9131 12.768 65.2731 12.264 65.7371 11.816C66.2171 11.368 66.7691 10.984 67.3931 10.664C68.0331 10.344 68.7211 10.08 69.4571 9.872L69.9851 10.856C69.3131 11.096 68.7211 11.408 68.2091 11.792C67.7131 12.176 67.3211 12.64 67.0331 13.184C66.7611 13.712 66.6251 14.336 66.6251 15.056C66.6251 15.84 66.7611 16.528 67.0331 17.12C67.3211 17.696 67.7531 18.144 68.3291 18.464C68.9051 18.784 69.6171 18.944 70.4651 18.944C71.2491 18.944 71.9531 18.8 72.5771 18.512C73.2171 18.208 73.7771 17.8 74.2571 17.288C74.7531 16.776 75.1691 16.216 75.5051 15.608C75.8411 14.984 76.0891 14.352 76.2491 13.712C76.4251 13.056 76.5131 12.432 76.5131 11.84C76.5131 11.776 76.4091 11.728 76.2011 11.696C76.0091 11.664 75.7771 11.64 75.5051 11.624C75.2331 11.608 74.9851 11.6 74.7611 11.6H74.7131V10.544H79.8491V11.6H79.8011C79.4491 11.6 79.1371 11.624 78.8651 11.672C78.6091 11.704 78.4011 11.784 78.2411 11.912C78.0811 12.04 77.9691 12.24 77.9051 12.512ZM79.6571 20H76.4171C75.4571 19.072 74.5371 18.152 73.6571 17.24C72.7771 16.312 71.9691 15.392 71.2331 14.48C70.4971 13.568 69.8571 12.672 69.3131 11.792C68.7691 10.912 68.3451 10.048 68.0411 9.2C67.7531 8.352 67.6091 7.536 67.6091 6.752C67.6091 5.936 67.7931 5.232 68.1611 4.64C68.5451 4.048 69.0651 3.592 69.7211 3.272C70.3771 2.936 71.1291 2.768 71.9771 2.768C73.1771 2.768 74.0971 3.064 74.7371 3.656C75.3931 4.232 75.7211 5 75.7211 5.96C75.7211 6.536 75.5851 7.064 75.3131 7.544C75.0411 8.024 74.6651 8.456 74.1851 8.84C73.7051 9.224 73.1451 9.568 72.5051 9.872C71.8811 10.176 71.2171 10.456 70.5131 10.712L69.9851 9.68C70.6091 9.408 71.1611 9.152 71.6411 8.912C72.1211 8.672 72.5211 8.424 72.8411 8.168C73.1771 7.896 73.4251 7.6 73.5851 7.28C73.7611 6.96 73.8491 6.584 73.8491 6.152C73.8491 5.512 73.6891 5.008 73.3691 4.64C73.0491 4.256 72.5851 4.064 71.9771 4.064C71.5451 4.064 71.1611 4.16 70.8251 4.352C70.4891 4.528 70.2171 4.824 70.0091 5.24C69.8171 5.64 69.7211 6.168 69.7211 6.824C69.7211 7.4 69.8091 7.992 69.9851 8.6C70.1611 9.192 70.4251 9.816 70.7771 10.472C71.1291 11.128 71.5851 11.824 72.1451 12.56C72.7051 13.28 73.3691 14.056 74.1371 14.888C74.9051 15.72 75.7851 16.608 76.7771 17.552C77.0331 17.776 77.2651 17.976 77.4731 18.152C77.6811 18.312 77.9051 18.432 78.1451 18.512C78.4011 18.592 78.7051 18.632 79.0571 18.632H79.6571V20ZM86.7161 18.032V4.28H85.3241C84.6361 4.28 84.0761 4.304 83.6441 4.352C83.2121 4.4 82.8921 4.504 82.6841 4.664C82.4761 4.824 82.3561 5.048 82.3241 5.336L82.1081 7.688H80.7881V2.96H94.9001V7.688H93.5801L93.3641 5.336C93.3321 5.048 93.2041 4.824 92.9801 4.664C92.7721 4.504 92.4521 4.4 92.0201 4.352C91.5881 4.304 91.0281 4.28 90.3401 4.28H88.9481V18.032C88.9481 18.384 89.1401 18.616 89.5241 18.728C89.9081 18.84 90.3961 18.896 90.9881 18.896H91.3721V20H84.2921V18.896H84.6761C85.2681 18.896 85.7561 18.84 86.1401 18.728C86.5241 18.616 86.7161 18.384 86.7161 18.032ZM104.937 7.64V9.776C104.825 9.728 104.689 9.696 104.529 9.68C104.385 9.648 104.233 9.624 104.073 9.608C103.913 9.592 103.761 9.584 103.617 9.584C103.185 9.584 102.809 9.648 102.489 9.776C102.169 9.888 101.881 10.064 101.625 10.304C101.385 10.528 101.161 10.824 100.953 11.192C100.745 11.56 100.521 12 100.281 12.512V10.952C100.521 10.28 100.817 9.696 101.169 9.2C101.537 8.688 101.961 8.288 102.441 8C102.937 7.712 103.497 7.568 104.121 7.568C104.281 7.568 104.433 7.576 104.577 7.592C104.737 7.592 104.857 7.608 104.937 7.64ZM96.537 20V18.92H96.585C97.161 18.92 97.633 18.864 98.001 18.752C98.369 18.64 98.553 18.408 98.553 18.056V10.016C98.553 9.776 98.489 9.6 98.361 9.488C98.233 9.36 98.033 9.256 97.761 9.176C97.505 9.096 97.177 9.016 96.777 8.936L96.537 8.888V7.808H100.473V11.312L100.689 11.096V18.104C100.689 18.36 100.801 18.552 101.025 18.68C101.249 18.792 101.513 18.864 101.817 18.896C102.137 18.912 102.417 18.92 102.657 18.92H103.065V20H96.537ZM108.546 14C108.546 14.768 108.642 15.456 108.834 16.064C109.042 16.672 109.33 17.192 109.698 17.624C110.066 18.04 110.498 18.36 110.994 18.584C111.49 18.792 112.026 18.896 112.602 18.896C113.258 18.896 113.818 18.768 114.282 18.512C114.762 18.256 115.162 17.944 115.482 17.576C115.818 17.192 116.098 16.816 116.322 16.448L117.45 17.432C117.146 17.944 116.77 18.416 116.322 18.848C115.874 19.28 115.338 19.624 114.714 19.88C114.106 20.12 113.386 20.24 112.554 20.24C111.386 20.24 110.33 19.984 109.386 19.472C108.458 18.96 107.722 18.232 107.178 17.288C106.634 16.344 106.362 15.232 106.362 13.952C106.362 12.688 106.618 11.584 107.13 10.64C107.642 9.68 108.33 8.928 109.194 8.384C110.074 7.84 111.05 7.568 112.122 7.568C113.002 7.568 113.77 7.712 114.426 8C115.098 8.288 115.658 8.712 116.106 9.272C116.57 9.832 116.922 10.544 117.162 11.408C117.402 12.272 117.522 13.28 117.522 14.432H108.09V13.112H115.914L115.242 13.616C115.226 12.816 115.154 12.12 115.026 11.528C114.898 10.936 114.706 10.448 114.45 10.064C114.194 9.68 113.874 9.392 113.49 9.2C113.106 9.008 112.65 8.912 112.122 8.912C111.626 8.912 111.162 9.032 110.73 9.272C110.298 9.496 109.914 9.832 109.578 10.28C109.258 10.712 109.002 11.248 108.81 11.888C108.634 12.512 108.546 13.216 108.546 14ZM119.342 20V18.92H119.39C119.774 18.92 120.11 18.896 120.398 18.848C120.702 18.8 120.934 18.712 121.094 18.584C121.27 18.456 121.358 18.28 121.358 18.056V10.016C121.358 9.776 121.294 9.6 121.166 9.488C121.038 9.36 120.838 9.256 120.566 9.176C120.31 9.096 119.982 9.016 119.582 8.936L119.342 8.888V7.808H123.278V10.352L123.494 10.616V18.68C123.494 18.728 123.59 18.776 123.782 18.824C123.974 18.856 124.206 18.88 124.478 18.896C124.75 18.912 124.998 18.92 125.222 18.92H125.294V20H119.342ZM133.358 20H127.406V18.92H127.454C127.678 18.92 127.926 18.912 128.198 18.896C128.47 18.88 128.702 18.856 128.894 18.824C129.102 18.776 129.206 18.728 129.206 18.68V11.672C129.206 11.064 129.142 10.568 129.014 10.184C128.886 9.8 128.67 9.52 128.366 9.344C128.078 9.152 127.678 9.056 127.166 9.056C126.638 9.056 126.134 9.16 125.654 9.368C125.174 9.576 124.718 9.888 124.286 10.304C123.87 10.704 123.47 11.216 123.086 11.84L123.062 10.232C123.494 9.64 123.926 9.144 124.358 8.744C124.806 8.344 125.286 8.048 125.798 7.856C126.326 7.664 126.902 7.568 127.526 7.568C128.294 7.568 128.958 7.704 129.518 7.976C130.094 8.248 130.542 8.672 130.862 9.248C131.182 9.808 131.342 10.536 131.342 11.432V18.056C131.342 18.28 131.422 18.456 131.582 18.584C131.758 18.712 131.99 18.8 132.278 18.848C132.582 18.896 132.926 18.92 133.31 18.92H133.358V20ZM146.763 18.056C146.763 18.408 146.947 18.64 147.315 18.752C147.699 18.864 148.179 18.92 148.755 18.92H148.779V20H144.819V17.312L144.627 17.24V4.568C144.627 4.328 144.563 4.144 144.435 4.016C144.307 3.888 144.107 3.784 143.835 3.704C143.563 3.624 143.219 3.552 142.803 3.488L142.539 3.44V2.36H146.763V18.056ZM140.739 7.568C141.379 7.568 141.947 7.656 142.443 7.832C142.955 8.008 143.419 8.288 143.835 8.672C144.267 9.056 144.675 9.552 145.059 10.16L145.035 12.248C144.699 11.48 144.315 10.848 143.883 10.352C143.467 9.856 143.003 9.496 142.491 9.272C141.979 9.032 141.419 8.912 140.811 8.912C140.235 8.912 139.723 9.032 139.275 9.272C138.827 9.512 138.451 9.856 138.147 10.304C137.843 10.736 137.611 11.272 137.451 11.912C137.307 12.536 137.235 13.232 137.235 14C137.235 14.736 137.307 15.408 137.451 16.016C137.611 16.608 137.835 17.128 138.123 17.576C138.427 18.008 138.795 18.336 139.227 18.56C139.675 18.784 140.179 18.896 140.739 18.896C141.379 18.896 141.955 18.76 142.467 18.488C142.979 18.216 143.443 17.824 143.859 17.312C144.291 16.8 144.683 16.168 145.035 15.416L145.059 17.384C144.643 18.024 144.219 18.56 143.787 18.992C143.355 19.408 142.875 19.72 142.347 19.928C141.835 20.136 141.251 20.24 140.595 20.24C139.475 20.24 138.491 19.984 137.643 19.472C136.811 18.944 136.155 18.216 135.675 17.288C135.211 16.344 134.979 15.248 134.979 14C134.979 12.72 135.219 11.6 135.699 10.64C136.179 9.68 136.851 8.928 137.715 8.384C138.595 7.84 139.603 7.568 140.739 7.568ZM157.842 16.832C157.842 16.496 157.754 16.216 157.578 15.992C157.402 15.768 157.162 15.584 156.858 15.44C156.57 15.28 156.234 15.152 155.85 15.056C155.482 14.944 155.09 14.84 154.674 14.744C154.178 14.616 153.682 14.472 153.186 14.312C152.706 14.152 152.266 13.944 151.866 13.688C151.466 13.416 151.146 13.072 150.906 12.656C150.666 12.24 150.546 11.72 150.546 11.096C150.546 10.408 150.722 9.8 151.074 9.272C151.426 8.728 151.93 8.312 152.586 8.024C153.258 7.72 154.066 7.568 155.01 7.568C155.746 7.568 156.386 7.624 156.93 7.736C157.49 7.848 157.954 7.992 158.322 8.168C158.69 8.328 158.962 8.48 159.138 8.624V11.216H157.074V8.96C157.25 8.96 157.394 8.992 157.506 9.056C157.634 9.104 157.73 9.184 157.794 9.296C157.858 9.392 157.898 9.512 157.914 9.656C157.93 9.8 157.914 9.96 157.866 10.136C157.69 9.864 157.458 9.64 157.17 9.464C156.882 9.272 156.554 9.136 156.186 9.056C155.834 8.96 155.442 8.912 155.01 8.912C154.178 8.912 153.554 9.096 153.138 9.464C152.722 9.816 152.514 10.272 152.514 10.832C152.514 11.184 152.602 11.488 152.778 11.744C152.97 11.984 153.218 12.184 153.522 12.344C153.842 12.488 154.194 12.616 154.578 12.728C154.978 12.84 155.394 12.952 155.826 13.064C156.306 13.176 156.786 13.312 157.266 13.472C157.746 13.632 158.178 13.84 158.562 14.096C158.962 14.352 159.274 14.68 159.498 15.08C159.738 15.48 159.858 15.984 159.858 16.592C159.858 17.28 159.666 17.904 159.282 18.464C158.898 19.008 158.346 19.44 157.626 19.76C156.922 20.08 156.066 20.24 155.058 20.24C154.29 20.24 153.594 20.176 152.97 20.048C152.362 19.936 151.818 19.784 151.338 19.592C150.858 19.384 150.426 19.16 150.042 18.92V16.16H152.154V19.208C151.914 19.064 151.73 18.92 151.602 18.776C151.474 18.632 151.386 18.496 151.338 18.368C151.29 18.224 151.274 18.08 151.29 17.936C151.306 17.776 151.338 17.616 151.386 17.456C151.658 17.792 151.978 18.064 152.346 18.272C152.714 18.48 153.122 18.64 153.57 18.752C154.018 18.848 154.506 18.896 155.034 18.896C155.61 18.896 156.106 18.816 156.522 18.656C156.938 18.496 157.258 18.264 157.482 17.96C157.722 17.64 157.842 17.264 157.842 16.832Z" fill="#FDFCF4"/>
<path d="M6.91406 43.041L2.20703 56H0.283203L5.70312 41.7812H6.94336L6.91406 43.041ZM10.8594 56L6.14258 43.041L6.11328 41.7812H7.35352L12.793 56H10.8594ZM10.6152 50.7363V52.2793H2.62695V50.7363H10.6152ZM23.284 53.9492V41H25.1004V56H23.4402L23.284 53.9492ZM16.1746 50.834V50.6289C16.1746 49.8216 16.2723 49.0892 16.4676 48.4316C16.6694 47.7676 16.9526 47.1979 17.3172 46.7227C17.6883 46.2474 18.1277 45.8828 18.6355 45.6289C19.1499 45.3685 19.7228 45.2383 20.3543 45.2383C21.0184 45.2383 21.5978 45.3555 22.0926 45.5898C22.5939 45.8177 23.0171 46.153 23.3621 46.5957C23.7137 47.0319 23.9904 47.5592 24.1922 48.1777C24.394 48.7962 24.534 49.4961 24.6121 50.2773V51.1758C24.5405 51.9505 24.4005 52.6471 24.1922 53.2656C23.9904 53.8841 23.7137 54.4115 23.3621 54.8477C23.0171 55.2839 22.5939 55.6191 22.0926 55.8535C21.5913 56.0814 21.0053 56.1953 20.3348 56.1953C19.7163 56.1953 19.1499 56.0618 18.6355 55.7949C18.1277 55.528 17.6883 55.1536 17.3172 54.6719C16.9526 54.1901 16.6694 53.6237 16.4676 52.9727C16.2723 52.3151 16.1746 51.6022 16.1746 50.834ZM17.991 50.6289V50.834C17.991 51.3613 18.0431 51.8561 18.1473 52.3184C18.2579 52.7806 18.4272 53.1875 18.6551 53.5391C18.8829 53.8906 19.1727 54.1673 19.5242 54.3691C19.8758 54.5645 20.2957 54.6621 20.784 54.6621C21.3829 54.6621 21.8745 54.5352 22.2586 54.2812C22.6492 54.0273 22.9617 53.6921 23.1961 53.2754C23.4305 52.8587 23.6128 52.4062 23.743 51.918V49.5645C23.6648 49.2064 23.5509 48.8613 23.4012 48.5293C23.2579 48.1908 23.0691 47.8913 22.8348 47.6309C22.6069 47.3639 22.3237 47.1523 21.9852 46.9961C21.6531 46.8398 21.2592 46.7617 20.8035 46.7617C20.3087 46.7617 19.8823 46.8659 19.5242 47.0742C19.1727 47.276 18.8829 47.556 18.6551 47.9141C18.4272 48.2656 18.2579 48.6758 18.1473 49.1445C18.0431 49.6068 17.991 50.1016 17.991 50.6289ZM31.9098 47.5332V56H30.0934V45.4336H31.8121L31.9098 47.5332ZM31.5387 50.3164L30.6988 50.2871C30.7053 49.5645 30.7997 48.8971 30.982 48.2852C31.1643 47.6667 31.4345 47.1296 31.7926 46.6738C32.1507 46.2181 32.5966 45.8665 33.1305 45.6191C33.6643 45.3652 34.2828 45.2383 34.9859 45.2383C35.4807 45.2383 35.9365 45.3099 36.3531 45.4531C36.7698 45.5898 37.1311 45.8079 37.4371 46.1074C37.7431 46.4069 37.9807 46.791 38.15 47.2598C38.3193 47.7285 38.4039 48.2949 38.4039 48.959V56H36.5973V49.0469C36.5973 48.4935 36.5029 48.0508 36.3141 47.7188C36.1318 47.3867 35.8714 47.1458 35.5328 46.9961C35.1943 46.8398 34.7971 46.7617 34.3414 46.7617C33.8076 46.7617 33.3616 46.8561 33.0035 47.0449C32.6454 47.2337 32.359 47.4941 32.1441 47.8262C31.9293 48.1582 31.773 48.5391 31.6754 48.9688C31.5842 49.3919 31.5387 49.8411 31.5387 50.3164ZM38.3844 49.3203L37.1734 49.6914C37.1799 49.112 37.2743 48.5553 37.4566 48.0215C37.6454 47.4876 37.9156 47.0124 38.2672 46.5957C38.6253 46.179 39.0647 45.8503 39.5855 45.6094C40.1064 45.362 40.7021 45.2383 41.3727 45.2383C41.9391 45.2383 42.4404 45.3132 42.8766 45.4629C43.3193 45.6126 43.6904 45.8438 43.9898 46.1562C44.2958 46.4622 44.527 46.8561 44.6832 47.3379C44.8395 47.8197 44.9176 48.3926 44.9176 49.0566V56H43.1012V49.0371C43.1012 48.4447 43.0068 47.9857 42.818 47.6602C42.6357 47.3281 42.3753 47.097 42.0367 46.9668C41.7047 46.8301 41.3076 46.7617 40.8453 46.7617C40.4482 46.7617 40.0966 46.8301 39.7906 46.9668C39.4846 47.1035 39.2275 47.2923 39.0191 47.5332C38.8108 47.7676 38.6513 48.0378 38.5406 48.3438C38.4365 48.6497 38.3844 48.9753 38.3844 49.3203ZM51.8148 45.4336V56H49.9984V45.4336H51.8148ZM49.8617 42.6309C49.8617 42.3379 49.9496 42.0905 50.1254 41.8887C50.3077 41.6868 50.5746 41.5859 50.9262 41.5859C51.2712 41.5859 51.5349 41.6868 51.7172 41.8887C51.906 42.0905 52.0004 42.3379 52.0004 42.6309C52.0004 42.9108 51.906 43.1517 51.7172 43.3535C51.5349 43.5488 51.2712 43.6465 50.9262 43.6465C50.5746 43.6465 50.3077 43.5488 50.1254 43.3535C49.9496 43.1517 49.8617 42.9108 49.8617 42.6309ZM58.7219 47.6895V56H56.9152V45.4336H58.6242L58.7219 47.6895ZM58.2922 50.3164L57.5402 50.2871C57.5467 49.5645 57.6542 48.8971 57.8625 48.2852C58.0708 47.6667 58.3638 47.1296 58.7414 46.6738C59.119 46.2181 59.5682 45.8665 60.0891 45.6191C60.6164 45.3652 61.1991 45.2383 61.8371 45.2383C62.3579 45.2383 62.8267 45.3099 63.2434 45.4531C63.66 45.5898 64.0148 45.8112 64.3078 46.1172C64.6073 46.4232 64.8352 46.8203 64.9914 47.3086C65.1477 47.7904 65.2258 48.3796 65.2258 49.0762V56H63.4094V49.0566C63.4094 48.5033 63.328 48.0605 63.1652 47.7285C63.0025 47.39 62.7648 47.1458 62.4523 46.9961C62.1398 46.8398 61.7557 46.7617 61.3 46.7617C60.8508 46.7617 60.4406 46.8561 60.0695 47.0449C59.7049 47.2337 59.3892 47.4941 59.1223 47.8262C58.8618 48.1582 58.6568 48.5391 58.507 48.9688C58.3638 49.3919 58.2922 49.8411 58.2922 50.3164ZM72.1328 45.4336V56H70.3164V45.4336H72.1328ZM70.1797 42.6309C70.1797 42.3379 70.2676 42.0905 70.4434 41.8887C70.6257 41.6868 70.8926 41.5859 71.2441 41.5859C71.5892 41.5859 71.8529 41.6868 72.0352 41.8887C72.224 42.0905 72.3184 42.3379 72.3184 42.6309C72.3184 42.9108 72.224 43.1517 72.0352 43.3535C71.8529 43.5488 71.5892 43.6465 71.2441 43.6465C70.8926 43.6465 70.6257 43.5488 70.4434 43.3535C70.2676 43.1517 70.1797 42.9108 70.1797 42.6309ZM83.3855 53.1973C83.3855 52.9368 83.327 52.696 83.2098 52.4746C83.0991 52.2467 82.868 52.0417 82.5164 51.8594C82.1714 51.6706 81.6505 51.5078 80.9539 51.3711C80.368 51.2474 79.8374 51.1009 79.3621 50.9316C78.8934 50.7624 78.493 50.5573 78.1609 50.3164C77.8354 50.0755 77.5848 49.7923 77.409 49.4668C77.2332 49.1413 77.1453 48.7604 77.1453 48.3242C77.1453 47.9076 77.2365 47.5137 77.4187 47.1426C77.6075 46.7715 77.8712 46.4427 78.2098 46.1562C78.5548 45.8698 78.9682 45.6452 79.45 45.4824C79.9318 45.3197 80.4689 45.2383 81.0613 45.2383C81.9077 45.2383 82.6303 45.388 83.2293 45.6875C83.8283 45.987 84.2872 46.3874 84.6062 46.8887C84.9253 47.3835 85.0848 47.9336 85.0848 48.5391H83.2781C83.2781 48.2461 83.1902 47.9629 83.0145 47.6895C82.8452 47.4095 82.5945 47.1784 82.2625 46.9961C81.937 46.8138 81.5366 46.7227 81.0613 46.7227C80.56 46.7227 80.1531 46.8008 79.8406 46.957C79.5346 47.1068 79.31 47.2988 79.1668 47.5332C79.0301 47.7676 78.9617 48.015 78.9617 48.2754C78.9617 48.4707 78.9943 48.6465 79.0594 48.8027C79.131 48.9525 79.2547 49.0924 79.4305 49.2227C79.6062 49.3464 79.8536 49.4635 80.1727 49.5742C80.4917 49.6849 80.8986 49.7956 81.3934 49.9062C82.2592 50.1016 82.9721 50.3359 83.532 50.6094C84.0919 50.8828 84.5086 51.2181 84.782 51.6152C85.0555 52.0124 85.1922 52.4941 85.1922 53.0605C85.1922 53.5228 85.0945 53.946 84.8992 54.3301C84.7104 54.7142 84.4337 55.0462 84.0691 55.3262C83.7111 55.5996 83.2814 55.8145 82.7801 55.9707C82.2853 56.1204 81.7286 56.1953 81.1102 56.1953C80.1792 56.1953 79.3914 56.0293 78.7469 55.6973C78.1023 55.3652 77.6141 54.9355 77.282 54.4082C76.95 53.8809 76.784 53.3242 76.784 52.7383H78.6004C78.6264 53.2331 78.7697 53.627 79.0301 53.9199C79.2905 54.2064 79.6095 54.4115 79.9871 54.5352C80.3647 54.6523 80.7391 54.7109 81.1102 54.7109C81.6049 54.7109 82.0184 54.6458 82.3504 54.5156C82.6889 54.3854 82.9461 54.2064 83.1219 53.9785C83.2977 53.7507 83.3855 53.4902 83.3855 53.1973ZM94.1891 45.4336V46.8203H88.4762V45.4336H94.1891ZM90.4098 42.8652H92.2164V53.3828C92.2164 53.7409 92.2717 54.0111 92.3824 54.1934C92.4931 54.3757 92.6363 54.4961 92.8121 54.5547C92.9879 54.6133 93.1767 54.6426 93.3785 54.6426C93.5283 54.6426 93.6845 54.6296 93.8473 54.6035C94.0165 54.571 94.1435 54.5449 94.2281 54.5254L94.2379 56C94.0947 56.0456 93.9059 56.0879 93.6715 56.127C93.4436 56.1725 93.1669 56.1953 92.8414 56.1953C92.3987 56.1953 91.9918 56.1074 91.6207 55.9316C91.2496 55.7559 90.9534 55.4629 90.732 55.0527C90.5172 54.6361 90.4098 54.0762 90.4098 53.373V42.8652ZM100.315 47.0938V56H98.5082V45.4336H100.266L100.315 47.0938ZM103.616 45.375L103.606 47.0547C103.456 47.0221 103.313 47.0026 103.176 46.9961C103.046 46.9831 102.896 46.9766 102.727 46.9766C102.31 46.9766 101.942 47.0417 101.623 47.1719C101.304 47.3021 101.034 47.4844 100.813 47.7188C100.592 47.9531 100.416 48.2331 100.286 48.5586C100.162 48.8776 100.08 49.2292 100.041 49.6133L99.5336 49.9062C99.5336 49.2682 99.5954 48.6693 99.7191 48.1094C99.8493 47.5495 100.048 47.0547 100.315 46.625C100.582 46.1888 100.92 45.8503 101.33 45.6094C101.747 45.362 102.242 45.2383 102.815 45.2383C102.945 45.2383 103.095 45.2546 103.264 45.2871C103.433 45.3132 103.551 45.3424 103.616 45.375ZM113.325 54.1934V48.7539C113.325 48.3372 113.241 47.9759 113.071 47.6699C112.909 47.3574 112.661 47.1165 112.329 46.9473C111.997 46.778 111.587 46.6934 111.099 46.6934C110.643 46.6934 110.243 46.7715 109.898 46.9277C109.559 47.084 109.292 47.2891 109.097 47.543C108.908 47.7969 108.814 48.0703 108.814 48.3633H107.007C107.007 47.9857 107.105 47.6113 107.3 47.2402C107.495 46.8691 107.775 46.5339 108.14 46.2344C108.511 45.9284 108.954 45.6875 109.468 45.5117C109.989 45.3294 110.568 45.2383 111.206 45.2383C111.974 45.2383 112.652 45.3685 113.238 45.6289C113.83 45.8893 114.292 46.2832 114.624 46.8105C114.963 47.3314 115.132 47.9857 115.132 48.7734V53.6953C115.132 54.0469 115.161 54.4212 115.22 54.8184C115.285 55.2155 115.379 55.5573 115.503 55.8438V56H113.618C113.527 55.7917 113.456 55.515 113.404 55.1699C113.351 54.8184 113.325 54.4928 113.325 54.1934ZM113.638 49.5938L113.657 50.8633H111.831C111.317 50.8633 110.858 50.9056 110.454 50.9902C110.051 51.0684 109.712 51.1888 109.439 51.3516C109.165 51.5143 108.957 51.7194 108.814 51.9668C108.67 52.2077 108.599 52.4909 108.599 52.8164C108.599 53.1484 108.674 53.4512 108.823 53.7246C108.973 53.998 109.198 54.2161 109.497 54.3789C109.803 54.5352 110.178 54.6133 110.62 54.6133C111.174 54.6133 111.662 54.4961 112.085 54.2617C112.508 54.0273 112.844 53.7409 113.091 53.4023C113.345 53.0638 113.482 52.735 113.501 52.416L114.273 53.2852C114.227 53.5586 114.103 53.8613 113.902 54.1934C113.7 54.5254 113.43 54.8444 113.091 55.1504C112.759 55.4499 112.362 55.7005 111.9 55.9023C111.444 56.0977 110.93 56.1953 110.357 56.1953C109.64 56.1953 109.012 56.0553 108.472 55.7754C107.938 55.4954 107.521 55.1211 107.222 54.6523C106.929 54.1771 106.782 53.6465 106.782 53.0605C106.782 52.4941 106.893 51.9961 107.114 51.5664C107.336 51.1302 107.655 50.7689 108.071 50.4824C108.488 50.1895 108.989 49.9681 109.575 49.8184C110.161 49.6686 110.816 49.5938 111.538 49.5938H113.638ZM124.598 45.4336V46.8203H118.885V45.4336H124.598ZM120.818 42.8652H122.625V53.3828C122.625 53.7409 122.68 54.0111 122.791 54.1934C122.902 54.3757 123.045 54.4961 123.221 54.5547C123.396 54.6133 123.585 54.6426 123.787 54.6426C123.937 54.6426 124.093 54.6296 124.256 54.6035C124.425 54.571 124.552 54.5449 124.637 54.5254L124.646 56C124.503 56.0456 124.314 56.0879 124.08 56.127C123.852 56.1725 123.576 56.1953 123.25 56.1953C122.807 56.1953 122.4 56.1074 122.029 55.9316C121.658 55.7559 121.362 55.4629 121.141 55.0527C120.926 54.6361 120.818 54.0762 120.818 53.373V42.8652ZM130.88 45.4336V56H129.063V45.4336H130.88ZM128.927 42.6309C128.927 42.3379 129.014 42.0905 129.19 41.8887C129.373 41.6868 129.639 41.5859 129.991 41.5859C130.336 41.5859 130.6 41.6868 130.782 41.8887C130.971 42.0905 131.065 42.3379 131.065 42.6309C131.065 42.9108 130.971 43.1517 130.782 43.3535C130.6 43.5488 130.336 43.6465 129.991 43.6465C129.639 43.6465 129.373 43.5488 129.19 43.3535C129.014 43.1517 128.927 42.9108 128.927 42.6309ZM135.502 50.834V50.6094C135.502 49.8477 135.612 49.1413 135.834 48.4902C136.055 47.8327 136.374 47.263 136.791 46.7812C137.207 46.293 137.712 45.9154 138.304 45.6484C138.897 45.375 139.561 45.2383 140.296 45.2383C141.039 45.2383 141.706 45.375 142.298 45.6484C142.897 45.9154 143.405 46.293 143.822 46.7812C144.245 47.263 144.567 47.8327 144.789 48.4902C145.01 49.1413 145.121 49.8477 145.121 50.6094V50.834C145.121 51.5957 145.01 52.3021 144.789 52.9531C144.567 53.6042 144.245 54.1738 143.822 54.6621C143.405 55.1439 142.901 55.5215 142.308 55.7949C141.722 56.0618 141.058 56.1953 140.316 56.1953C139.574 56.1953 138.907 56.0618 138.314 55.7949C137.722 55.5215 137.214 55.1439 136.791 54.6621C136.374 54.1738 136.055 53.6042 135.834 52.9531C135.612 52.3021 135.502 51.5957 135.502 50.834ZM137.308 50.6094V50.834C137.308 51.3613 137.37 51.8594 137.494 52.3281C137.617 52.7904 137.803 53.2005 138.05 53.5586C138.304 53.9167 138.62 54.1999 138.998 54.4082C139.375 54.61 139.815 54.7109 140.316 54.7109C140.811 54.7109 141.244 54.61 141.615 54.4082C141.992 54.1999 142.305 53.9167 142.552 53.5586C142.8 53.2005 142.985 52.7904 143.109 52.3281C143.239 51.8594 143.304 51.3613 143.304 50.834V50.6094C143.304 50.0885 143.239 49.597 143.109 49.1348C142.985 48.666 142.796 48.2526 142.543 47.8945C142.295 47.5299 141.983 47.2435 141.605 47.0352C141.234 46.8268 140.798 46.7227 140.296 46.7227C139.802 46.7227 139.365 46.8268 138.988 47.0352C138.617 47.2435 138.304 47.5299 138.05 47.8945C137.803 48.2526 137.617 48.666 137.494 49.1348C137.37 49.597 137.308 50.0885 137.308 50.6094ZM151.393 47.6895V56H149.586V45.4336H151.295L151.393 47.6895ZM150.963 50.3164L150.211 50.2871C150.218 49.5645 150.325 48.8971 150.534 48.2852C150.742 47.6667 151.035 47.1296 151.413 46.6738C151.79 46.2181 152.239 45.8665 152.76 45.6191C153.288 45.3652 153.87 45.2383 154.508 45.2383C155.029 45.2383 155.498 45.3099 155.914 45.4531C156.331 45.5898 156.686 45.8112 156.979 46.1172C157.278 46.4232 157.506 46.8203 157.663 47.3086C157.819 47.7904 157.897 48.3796 157.897 49.0762V56H156.08V49.0566C156.08 48.5033 155.999 48.0605 155.836 47.7285C155.674 47.39 155.436 47.1458 155.123 46.9961C154.811 46.8398 154.427 46.7617 153.971 46.7617C153.522 46.7617 153.112 46.8561 152.741 47.0449C152.376 47.2337 152.06 47.4941 151.793 47.8262C151.533 48.1582 151.328 48.5391 151.178 48.9688C151.035 49.3919 150.963 49.8411 150.963 50.3164Z" fill="#FFF9D7"/>
</svg>
