<svg width="24" height="24" viewBox="0 0 24 24" fill="none" xmlns="http://www.w3.org/2000/svg">
<path d="M7 9H17V7H7V9ZM7 13H11.75C12.0833 12.6 12.446 12.2293 12.838 11.888C13.23 11.5467 13.659 11.2507 14.125 11H7V13ZM7 17H10.05C10.0833 16.65 10.146 16.3083 10.238 15.975C10.33 15.6417 10.4423 15.3167 10.575 15H7V17ZM5 21C4.45 21 3.97933 20.8043 3.588 20.413C3.19667 20.0217 3.00067 19.5507 3 19V5C3 4.45 3.196 3.97933 3.588 3.588C3.98 3.19667 4.45067 3.00067 5 3H19C19.55 3 20.021 3.196 20.413 3.588C20.805 3.98 21.0007 4.45067 21 5V10.575C20.6833 10.4417 20.3583 10.3293 20.025 10.238C19.6917 10.1467 19.35 10.084 19 10.05V5H5V19H10.05C10.0833 19.35 10.146 19.6917 10.238 20.025C10.33 20.3583 10.4423 20.6833 10.575 21H5ZM18 23C16.7833 23 15.721 22.621 14.813 21.863C13.905 21.105 13.334 20.1507 13.1 19H14.65C14.8667 19.7333 15.2793 20.3333 15.888 20.8C16.4967 21.2667 17.2007 21.5 18 21.5C18.9667 21.5 19.7917 21.1583 20.475 20.475C21.1583 19.7917 21.5 18.9667 21.5 18C21.5 17.0333 21.1583 16.2083 20.475 15.525C19.7917 14.8417 18.9667 14.5 18 14.5C17.5167 14.5 17.0667 14.5877 16.65 14.763C16.2333 14.9383 15.8667 15.184 15.55 15.5H17V17H13V13H14.5V14.425C14.95 13.9917 15.475 13.646 16.075 13.388C16.675 13.13 17.3167 13.0007 18 13C19.3833 13 20.5627 13.4877 21.538 14.463C22.5133 15.4383 23.0007 16.6173 23 18C22.9993 19.3827 22.5117 20.562 21.537 21.538C20.5623 22.514 19.3833 23.0013 18 23Z" fill="#1B1357"/>
</svg>
