<svg width="24" height="24" viewBox="0 0 24 24" fill="none" xmlns="http://www.w3.org/2000/svg">
<path d="M20.987 3.01249C20.6663 2.6918 20.2856 2.43742 19.8666 2.26386C19.4476 2.0903 18.9985 2.00098 18.545 2.00098C18.0915 2.00098 17.6424 2.0903 17.2234 2.26386C16.8044 2.43742 16.4237 2.6918 16.103 3.01249L4.01898 15.0985C3.63793 15.4793 3.36642 15.9556 3.23298 16.4775L2.01948 21.22C1.99271 21.325 1.99372 21.4353 2.02242 21.5398C2.05112 21.6444 2.10652 21.7396 2.18318 21.8163C2.25984 21.893 2.35512 21.9484 2.45967 21.9771C2.56422 22.0058 2.67443 22.0068 2.77948 21.98L7.52298 20.768C8.04524 20.6347 8.52194 20.3632 8.90298 19.982L20.987 7.89599C21.6345 7.24835 21.9982 6.37005 21.9982 5.45424C21.9982 4.53843 21.6345 3.66013 20.987 3.01249ZM16.987 3.89649C17.4002 3.48322 17.9606 3.25102 18.5451 3.25097C19.1295 3.25092 19.69 3.48303 20.1032 3.89624C20.5165 4.30945 20.7487 4.8699 20.7488 5.45431C20.7488 6.03872 20.5167 6.59922 20.1035 7.01249L19 8.11599L15.884 4.99949L16.987 3.89649ZM15 5.88349L18.116 8.99999L8.01898 19.098C7.79663 19.3206 7.51837 19.4792 7.21348 19.557L3.49198 20.508L4.44398 16.7875C4.52198 16.4825 4.68048 16.2045 4.90248 15.9825L15 5.88349Z" fill="#1B1357"/>
</svg>
