<svg width="34" height="34" viewBox="0 0 34 34" fill="none" xmlns="http://www.w3.org/2000/svg">
<path fill-rule="evenodd" clip-rule="evenodd" d="M16 22C16.7879 22 17.5681 21.8448 18.2961 21.5433C19.0241 21.2417 19.6855 20.7998 20.2426 20.2426C20.7998 19.6855 21.2417 19.0241 21.5433 18.2961C21.8448 17.5681 22 16.7879 22 16C22 15.2121 21.8448 14.4319 21.5433 13.7039C21.2417 12.9759 20.7998 12.3145 20.2426 11.7574C19.6855 11.2002 19.0241 10.7583 18.2961 10.4567C17.5681 10.1552 16.7879 10 16 10C14.4087 10 12.8826 10.6321 11.7574 11.7574C10.6321 12.8826 10 14.4087 10 16C10 17.5913 10.6321 19.1174 11.7574 20.2426C12.8826 21.3679 14.4087 22 16 22ZM16 24C18.1217 24 20.1566 23.1571 21.6569 21.6569C23.1571 20.1566 24 18.1217 24 16C24 13.8783 23.1571 11.8434 21.6569 10.3431C20.1566 8.84285 18.1217 8 16 8C13.8783 8 11.8434 8.84285 10.3431 10.3431C8.84285 11.8434 8 13.8783 8 16C8 18.1217 8.84285 20.1566 10.3431 21.6569C11.8434 23.1571 13.8783 24 16 24Z" fill="#CAC9C2"/>
<path fill-rule="evenodd" clip-rule="evenodd" d="M20.32 20.29C20.5082 20.1032 20.7629 19.9988 21.028 19.9997C21.2932 20.0006 21.5471 20.1069 21.734 20.295L25.709 24.295C25.8907 24.4841 25.9908 24.737 25.9878 24.9992C25.9849 25.2615 25.879 25.512 25.693 25.6969C25.5071 25.8818 25.2559 25.9863 24.9937 25.9878C24.7314 25.9893 24.4791 25.8878 24.291 25.705L20.316 21.705C20.1291 21.5169 20.0245 21.2623 20.0252 20.9972C20.026 20.732 20.132 20.478 20.32 20.291V20.29Z" fill="#CAC9C2"/>
</svg>
